<?xml version="1.0" encoding="UTF-8"?>
<svg width="1200pt" height="1200pt" version="1.1" viewBox="0 0 1200 1200" xmlns="http://www.w3.org/2000/svg">
 <path d="m1175.4 323.26c-22.523-49.934-71.16-115.01-174.64-141.61-121.03-31.129-218.68-4.6328-297.1 16.691-58.402 15.852-108.89 29.578-154.43 16.586-2.6523-0.76953-5.3398-1.1289-8.0156-1.2461-2.8789-2.3984-5.832-4.8125-8.4609-7.2461-75.863-70.621-192.98-107.63-298.18-94.164-84.961 10.824-155.16 53.484-197.61 120.11-47.461 74.375-49.355 169.14-5.0898 247.27 44.926 79.168 126.75 126.34 220.99 129.24v376.71l10.523 10.512c59.27 59.281 184.48 94.344 336.14 94.344 3.1211 0 6.3008-0.023438 9.4922-0.046876 118.69-1.1523 269.68-26.508 337.43-94.297l10.523-10.512v-300.89c4.5 0.21484 9.0234 0.79297 13.5 0.79297 20.605 0 41.039-2.1484 60.887-6.9102 62.258-14.965 111.02-54.098 141.07-113.23 29.629-58.25 42.051-155.73 2.9531-242.11zm-66.957 209.57c-20.809 40.957-51.492 65.773-93.816 75.949-82.246 19.754-189.45-22.609-259.15-73.367-155.09-112.91-295.31-149.09-375.1-96.863-16.598 10.883-21.238 33.145-10.355 49.738 10.871 16.559 33.121 21.203 49.715 10.332 51.371-33.684 169.29 4.4414 293.48 94.848 44.34 32.281 106.22 64.176 171.96 80.578v280.43c-49.031 37.633-157.01 62.977-276.84 64.141-124.08 1.1758-232.29-23.652-283.64-63.996v-344.86c88.57 3.625 132.42 24.66 172.82 58.078 6.707 5.543 14.809 8.2305 22.871 8.2305 10.332 0 20.555-4.4141 27.684-12.996 12.637-15.277 10.5-37.906-4.7773-50.555-59.531-49.246-126.25-78.816-274.67-74.773-74.879 2.1367-139.87-32.855-174.24-93.504-31.633-55.797-30.469-120.56 3.1445-173.25 39.492-61.945 101.26-81.758 146.14-87.492 84.961-10.859 179.26 18.77 240.21 75.527 63.492 59.09 219.25 122.04 282.71 114.25 19.668-2.4609 33.66-20.387 31.223-40.066-2.4375-19.691-20.316-33.625-40.055-31.234-14.652 2.0039-49.598-6.2266-88.848-20.641 17.699-4.0547 35.508-8.8086 53.605-13.727 77.555-21.047 157.74-42.828 260.39-16.465 60.938 15.695 103.69 49.883 127.13 101.64 29.039 64.398 19.547 138.49-1.5938 180.04zm-734.02 195.56c-13.223 0-23.93 10.703-23.93 23.93v175.55c0 13.211 10.715 23.941 23.93 23.941 13.246 0 23.953-10.738 23.953-23.941v-175.55c0-13.223-10.703-23.93-23.953-23.93zm92.234 23.93c-13.223 0-23.93 10.715-23.93 23.941v175.55c0 13.211 10.715 23.93 23.93 23.93 13.199 0 23.93-10.727 23.93-23.93l-0.003907-175.55c0-13.227-10.738-23.941-23.926-23.941zm68.266 39.648v175.55c0 13.211 10.715 23.941 23.93 23.941 13.211 0 23.953-10.738 23.953-23.941v-175.55c0-13.234-10.738-23.941-23.953-23.941-13.211 0-23.93 10.715-23.93 23.941zm116.14 199.49c13.223 0 23.93-10.738 23.93-23.941v-175.55c0-13.234-10.715-23.941-23.93-23.941-13.211 0-23.93 10.715-23.93 23.941v175.55c0.003906 13.211 10.707 23.941 23.93 23.941zm92.211-15.711c13.223 0 23.953-10.727 23.953-23.93l-0.003907-175.55c0-13.234-10.738-23.941-23.953-23.941-13.199 0-23.93 10.715-23.93 23.941v175.55c-0.007813 13.211 10.73 23.938 23.934 23.938zm92.219-23.938c13.223 0 23.93-10.738 23.93-23.941l-0.003906-175.55c0-13.234-10.715-23.93-23.93-23.93-13.246 0-23.93 10.703-23.93 23.93v175.55c0.003906 13.211 10.695 23.941 23.934 23.941z"/>
</svg>
