<?xml version="1.0" encoding="UTF-8"?>
<svg width="1200pt" height="1200pt" version="1.1" viewBox="0 0 1200 1200" xmlns="http://www.w3.org/2000/svg">
 <path d="m1105.5 839.86h-0.70312c-8.0625-18-27.469-51.844-68.297-83.859 23.062-69.703 22.453-144.71-2.3906-215.06-21.844-61.781-60.469-114.61-111.47-153.47l117.94-247.08c7.3125-15.469 8.2969-32.766 2.625-48.844-5.625-16.078-17.297-29.062-32.766-36.375l-9-4.3125c-31.781-15.234-70.078-1.6875-85.312 30.141l-117.94 247.08c-62.297-15.234-127.55-12.141-189.47 9.7031-35.297 12.469-67.547 30.469-96 53.062-9.6094-9.9375-25.453-15.938-42.938-15.938h-21.938c-18.141 0-34.688 6.375-44.156 16.922-6.375 7.2188-9.375 16.078-8.3906 24.938l3.8438 34.453c-195.37 15.234-236.16 104.86-244.55 143.06-28.547 5.1562-50.297 30.141-50.297 60.141v9.6094c0 9 2.0625 17.531 5.625 25.312h-33.938c-18.844 0-34.078 15.375-34.078 34.078v50.391c0 12.938 7.2188 24.609 18.844 30.469l91.781 46.219v206.76c0 55.547 45.234 100.69 100.69 100.69h760.78c52.078 0 94.547-42.375 94.547-94.547v-113.16c27.469-1.5469 49.453-24.234 49.453-52.078v-6c0-28.922-23.531-52.453-52.453-52.453zm-33 223.6c0 32.297-26.297 58.547-58.547 58.547h-510.47c-32.297 0-58.547-26.297-58.547-58.547v-112.78h627.61v112.78zm-819.24 58.547c-35.625 0-64.688-29.062-64.688-64.688v-331.92h343.78c-75.469 38.766-106.69 90.844-117.61 114.61-28.312 0.70312-51.141 23.766-51.141 52.312v6c0 26.531 19.781 48.234 45.375 51.703v113.53c0 22.078 7.6875 42.375 20.391 58.547h-176.16zm-175.31-396.61h74.531v84.844l-74.531-37.547zm62.531-61.312v-9.6094c0-13.922 11.391-25.312 25.312-25.312h518.39c-4.7812 10.547-7.5469 22.312-7.5469 34.688 0 6.6094 0.84375 12.844 2.2969 18.938-14.156 1.6875-27.609 3.8438-40.312 6.375h-472.97c-13.922 0-25.312-11.391-25.312-25.312zm291-249c2.1562-1.6875 7.7812-4.2188 16.453-4.2188h21.938c8.7656 0 14.297 2.625 16.453 4.2188l-3.8438 34.219c-7.6875-0.23438-15.469-0.375-23.625-0.375s-15.938 0.14062-23.625 0.375l-3.8438-34.219zm554.53-331.78 9 4.3125c13.922 6.6094 19.781 23.391 13.219 37.312l-115.55 242.06c-9.375-5.625-19.078-10.922-29.062-15.609-9.9375-4.7812-20.156-9-30.375-12.703l115.55-242.06c6.6094-13.922 23.391-19.781 37.312-13.219zm-137.9 300.47c71.625 34.219 125.63 94.312 152.16 169.22 21 59.391 22.547 122.53 5.2969 181.78-15.844-9.4688-33.938-18.234-54.609-26.062 10.781-43.547 9.4688-90.609-6.6094-135.94-43.781-123.71-180-188.76-303.61-144.94-21.938 7.7812-42 18.609-60 31.547-18.703-3.6094-39.375-6.2344-61.922-8.0625l2.2969-20.297c28.688-25.781 62.531-46.078 99.938-59.297 32.391-11.531 65.859-17.156 99.375-17.156 43.688 0 87.234 9.7031 127.92 29.156zm-135.61 280.18c0-26.625 21.609-48.234 48.234-48.234s48.234 21.609 48.234 48.234-21.609 48.234-48.234 48.234-48.234-21.609-48.234-48.234zm204 33.516c-22.078-6.1406-46.547-11.156-73.688-14.531 1.4531-6.1406 2.2969-12.469 2.2969-19.078 0-46.453-37.781-84.234-84.234-84.234h-1.7812c-11.297-31.781-42.703-79.922-129.61-108 7.4531-3.7031 15.141-7.2188 23.297-10.078 22.219-7.7812 44.859-11.531 67.078-11.531 83.156 0 161.29 51.844 190.55 134.63 13.312 37.547 14.531 76.453 6.1406 112.69zm-461.02 142.4c22.547-37.219 84.938-107.06 240.14-122.63 15.469 18.844 38.859 30.938 65.156 30.938s49.688-12 65.156-30.938c155.06 15.609 216.47 85.547 238.45 122.63zm3.4688-354.79c196.55 0 250.22 66.938 264.84 103.31-3 1.4531-5.8594 3.1406-8.625 4.9219h-522.84c11.859-35.062 61.312-108.23 266.63-108.23zm663 413.26c0 9-7.3125 16.453-16.453 16.453h-689.53c-9 0-16.453-7.3125-16.453-16.453v-6c0-9 7.3125-16.453 16.453-16.453h689.53c9 0 16.453 7.3125 16.453 16.453z"/>
</svg>
