<?xml version="1.0" encoding="UTF-8"?>
<svg width="1200pt" height="1200pt" version="1.1" viewBox="0 0 1200 1200" xmlns="http://www.w3.org/2000/svg">
 <path d="m803.68 287.34c-65.531-58.688-150.19-85.641-238.4-75.891-142.97 15.844-256.26 131.39-269.34 274.87-11.672 127.78 55.031 246.71 169.92 303 12.375 6.0469 20.391 19.219 20.391 33.469v19.219c-28.078 3.4688-49.969 27.188-49.969 56.156 0 15.047 6 28.688 15.562 38.859-9.6094 10.172-15.562 23.812-15.562 38.859 0 31.359 25.5 56.859 56.859 56.859h3.1875c8.4375 44.203 47.344 77.766 93.984 77.766h19.406c46.641 0 85.547-33.516 93.984-77.766h3.1875c31.359 0 56.859-25.5 56.859-56.859 0-15.047-6-28.688-15.562-38.859 9.6094-10.172 15.562-23.812 15.562-38.859 0-29.016-21.891-52.734-49.969-56.156v-19.219c0-14.25 8.0625-27.422 20.578-33.562 105.47-51.75 171.05-156.84 171.05-274.26 0-86.719-37.078-169.69-101.72-227.58zm-193.97 787.18h-19.406c-26.672 0-49.312-17.578-57-41.766h133.4c-7.6875 24.188-30.281 41.766-57 41.766zm97.219-77.766h-213.84c-11.531 0-20.859-9.375-20.859-20.859 0-11.531 9.375-20.859 20.859-20.859h213.84c11.531 0 20.859 9.375 20.859 20.859 0 11.531-9.375 20.859-20.859 20.859zm20.859-98.625c0 11.531-9.375 20.859-20.859 20.859h-213.84c-11.531 0-20.859-9.375-20.859-20.859 0-11.531 9.375-20.859 20.859-20.859h213.84c11.531 0 20.859 9.375 20.859 20.859zm-174.94-192.94h-25.734c-14.203 0-25.734-11.531-25.734-25.734s11.531-25.734 25.734-25.734 25.734 11.531 25.734 25.734zm36 136.03v-100.08h22.312v100.08zm129.66-84.375c-24.75 12.141-40.688 38.016-40.688 65.859v18.516h-30.656v-100.08h25.734c34.031 0 61.734-27.703 61.734-61.734s-27.703-61.734-61.734-61.734-61.734 27.703-61.734 61.734v25.734h-22.312v-25.734c0-34.031-27.703-61.734-61.734-61.734s-61.734 27.703-61.734 61.734 27.703 61.734 61.734 61.734h25.734v100.08h-30.656v-18.516c0-27.938-15.938-53.766-40.547-65.812-101.34-49.641-160.22-154.6-149.9-267.37 11.531-126.47 111.42-228.42 237.47-242.34 77.812-8.625 152.63 15.141 210.42 66.938 57.047 51.094 89.766 124.26 89.766 200.76 0 103.59-57.844 196.26-150.89 241.97zm-71.344-51.656v-25.734c0-14.203 11.531-25.734 25.734-25.734 14.203 0 25.734 11.531 25.734 25.734s-11.531 25.734-25.734 25.734z"/>
 <path d="m600 160.55c9.9375 0 18-8.0625 18-18v-35.062c0-9.9375-8.0625-18-18-18s-18 8.0625-18 18v35.062c0 9.9375 8.0625 18 18 18z"/>
 <path d="m440.63 176.02c1.9688 8.25 9.375 13.781 17.484 13.781 1.4062 0 2.8125-0.1875 4.2188-0.51562 9.6562-2.2969 15.609-12.047 13.312-21.703l-8.5312-35.531c-2.3438-9.6562-12.047-15.656-21.703-13.312-9.6562 2.2969-15.609 12.047-13.312 21.703l8.5312 35.531z"/>
 <path d="m317.06 271.55c3.2344 6.0938 9.4688 9.6094 15.938 9.6094 2.8125 0 5.7188-0.65625 8.3906-2.1094 8.8125-4.6406 12.141-15.516 7.5-24.328l-17.906-33.844c-4.6406-8.8125-15.562-12.141-24.328-7.5-8.8125 4.6406-12.141 15.516-7.5 24.328z"/>
 <path d="m245.02 352.5c-6.7031-7.3125-18.094-7.8281-25.406-1.125s-7.875 18.094-1.125 25.406l27.75 30.375c3.5625 3.8906 8.4375 5.8594 13.312 5.8594 4.3125 0 8.6719-1.5469 12.141-4.6875 7.3125-6.7031 7.875-18.094 1.125-25.406l-27.75-30.375z"/>
 <path d="m737.53 189.56c1.4062 0.32812 2.8125 0.51562 4.2188 0.51562 8.1562 0 15.516-5.5312 17.484-13.781l8.5312-35.531c2.2969-9.6562-3.6562-19.406-13.312-21.703-9.7031-2.3438-19.406 3.6562-21.703 13.312l-8.5312 35.531c-2.2969 9.6562 3.6562 19.406 13.312 21.703z"/>
 <path d="m858.42 279.37c2.6719 1.4531 5.5781 2.1094 8.4375 2.1094 6.4219 0 12.656-3.4688 15.891-9.5625l18-33.844c1.4062-2.625 2.1094-5.5312 2.1094-8.4375v-0.14062c0-9.9375-8.0625-17.953-18-17.953-7.125 0-13.219 4.125-16.172 10.125l-17.719 33.328c-4.6875 8.7656-1.3125 19.688 7.4531 24.328z"/>
 <path d="m980.44 351.37c-7.3125-6.7031-18.703-6.1875-25.406 1.125l-27.844 30.469c-6.7031 7.3594-6.1875 18.75 1.125 25.406 3.4688 3.1406 7.7812 4.6875 12.141 4.6875 4.875 0 9.75-1.9688 13.312-5.8594l27.844-30.469c6.7031-7.3594 6.1875-18.75-1.125-25.406z"/>
</svg>
