<?xml version="1.0" encoding="UTF-8"?>
<svg width="1200pt" height="1200pt" version="1.1" viewBox="0 0 1200 1200" xmlns="http://www.w3.org/2000/svg">
 <path d="m112.5 906.98h56.484v57.703c0 10.594 8.625 19.219 19.172 19.219h103.27c10.594 0 19.172-8.625 19.172-19.219v-57.703h578.81v57.703c0 10.594 8.625 19.219 19.172 19.219h103.27c10.594 0 19.172-8.625 19.172-19.219v-57.703h56.484c25.875 0 46.875-21 46.875-46.875v-314.76c0-5.2031-4.1719-9.375-9.375-9.375s-9.375 4.1719-9.375 9.375v314.76c0 15.516-12.609 28.125-28.125 28.125h-975c-15.516 0-28.125-12.609-28.125-28.125v-597.14c0-15.516 12.609-28.125 28.125-28.125h975c15.516 0 28.125 12.609 28.125 28.125v222.52c0 5.2031 4.1719 9.375 9.375 9.375s9.375-4.1719 9.375-9.375v-222.52c0-25.828-21-46.875-46.875-46.875h-975c-25.875 0-46.875 21.047-46.875 46.875v597.14c0 25.875 21 46.875 46.875 46.875zm795.66 0h104.06l-0.375 58.172-103.69-0.46875zm-720.42 0h104.06l-0.375 58.172-103.69-0.46875z"/>
 <path d="m143.29 275.06c-10.359 0-18.75 8.3906-18.75 18.75v535.5c0 10.359 8.3906 18.75 18.75 18.75h747.05c10.359 0 18.75-8.3906 18.75-18.75v-535.5c0-10.359-8.3906-18.75-18.75-18.75zm0 554.26h-9.375zm747.05 0-747.05-0.046874v-48.141l747.05 0.046876zm0-66.891h-166.4c34.312-21.609 57.234-59.672 57.234-103.12v-32.344c0-10.359-8.3906-18.75-18.75-18.75h-349.03c-5.2031 0-9.375 4.1719-9.375 9.375 0 5.2031 4.1719 9.375 9.375 9.375h349.03v32.344c0 56.859-46.266 103.12-103.12 103.12h-284.11c-56.859 0-103.12-46.266-103.12-103.12v-32.344h78.609c5.2031 0 9.375-4.1719 9.375-9.375 0-5.2031-4.1719-9.375-9.375-9.375h-78.609c-10.359 0-18.75 8.3906-18.75 18.75v32.344c0 43.453 22.922 81.516 57.234 103.12h-167.26v-468.61h747.05z"/>
 <path d="m414.66 481.87c6.9375 5.4375 10.641 11.859 11.297 19.594 1.875 22.172-20.766 47.297-20.953 47.531-3.4688 3.8438-3.2344 9.75 0.60938 13.266 1.7812 1.6406 4.0781 2.4375 6.3281 2.4375 2.5312 0 5.0625-1.0312 6.9375-3.0469 1.1719-1.2656 28.359-31.359 25.828-61.688-1.0781-13.078-7.3125-24.141-18.469-32.859-8.5312-6.6562-12.891-13.781-13.359-21.797-0.9375-16.125 13.969-31.078 14.156-31.219 3.6562-3.6562 3.7031-9.5625 0.09375-13.266-3.6094-3.6562-9.4688-3.75-13.219-0.14062-0.84375 0.84375-21.094 20.906-19.734 45.609 0.70312 13.547 7.5938 25.547 20.484 35.578z"/>
 <path d="m512.44 481.87c6.9375 5.4375 10.688 11.859 11.297 19.594 1.875 22.172-20.719 47.25-20.953 47.531-3.4688 3.8438-3.2344 9.75 0.60938 13.219 1.7812 1.6406 4.0781 2.4844 6.3281 2.4844 2.5312 0 5.0625-1.0312 6.8906-3.0469 1.1719-1.2656 28.359-31.312 25.828-61.688-1.0781-13.078-7.3125-24.141-18.469-32.859-8.4844-6.6562-12.891-13.781-13.312-21.797-0.9375-16.125 13.969-31.078 14.156-31.219 3.6562-3.6562 3.7031-9.5625 0.09375-13.266s-9.5156-3.75-13.219-0.14062c-0.84375 0.84375-21.094 20.906-19.734 45.609 0.70312 13.547 7.5938 25.547 20.484 35.578z"/>
 <path d="m610.26 481.87c6.9375 5.4375 10.688 11.859 11.297 19.594 1.875 22.172-20.719 47.25-20.953 47.531-3.4688 3.8438-3.2344 9.75 0.60938 13.219 1.7812 1.6406 4.0781 2.4844 6.3281 2.4844 2.5312 0 5.0625-1.0312 6.8906-3.0469 1.1719-1.2656 28.359-31.312 25.828-61.688-1.0781-13.078-7.3125-24.141-18.469-32.859-8.5312-6.6562-12.891-13.781-13.359-21.797-0.9375-16.125 13.969-31.078 14.156-31.219 3.6562-3.6562 3.7031-9.5625 0.09375-13.266-3.6094-3.6562-9.4688-3.75-13.219-0.14062-0.84375 0.84375-21.094 20.906-19.734 45.609 0.75 13.547 7.6406 25.547 20.531 35.578z"/>
 <path d="m1084.5 440.21v-57.141c0-10.359-8.3906-18.75-18.75-18.75h-106.64c-10.359 0-18.75 8.3906-18.75 18.75v57.141c0 10.359 8.3906 18.75 18.75 18.75h106.64c10.312 0 18.75-8.3906 18.75-18.75zm-18.75 9.375v-9.375h-106.64v-57.141h106.64z"/>
 <path d="m1012.4 647.02c-30.797 0-55.875 25.078-55.875 55.875s25.078 55.875 55.875 55.875 55.875-25.078 55.875-55.875-25.078-55.875-55.875-55.875zm0 93c-20.484 0-37.125-16.641-37.125-37.125s16.641-37.125 37.125-37.125 37.125 16.641 37.125 37.125-16.641 37.125-37.125 37.125z"/>
 <path d="m1012.4 500.02c-30.797 0-55.875 25.078-55.875 55.875s25.078 55.875 55.875 55.875 55.875-25.078 55.875-55.875-25.078-55.875-55.875-55.875zm0 93c-20.484 0-37.125-16.641-37.125-37.125s16.641-37.125 37.125-37.125 37.125 16.641 37.125 37.125-16.641 37.125-37.125 37.125z"/>
</svg>
