<?xml version="1.0" encoding="UTF-8"?>
<svg width="1200pt" height="1200pt" version="1.1" viewBox="0 0 1200 1200" xmlns="http://www.w3.org/2000/svg">
 <path d="m64.781 565.31 197.06 197.06-147.47 178.92c-16.078 19.547-23.391 44.297-20.625 69.703 2.7656 25.219 15.234 48.234 35.156 64.547 17.766 14.625 39.844 22.453 62.297 22.453 4.7812 0 9.6094-0.375 14.391-1.0781 26.297-3.9375 49.547-18.938 63.938-40.922l113.16-172.92 202.08 202.08c14.766 14.766 34.219 22.781 55.078 22.781s40.312-8.0625 55.078-22.781l123.37-123.37 114.7 147.61c22.219 28.453 55.453 46.078 91.453 48.375 2.625 0.14062 5.2969 0.23438 7.7812 0.23438 33.234 0 65.297-13.219 88.922-36.844 25.547-25.547 38.859-60.703 36.609-96.703-2.2969-36-19.922-69.375-48.375-91.453l-147.61-114.7 123.37-123.37c14.766-14.766 22.781-34.219 22.781-55.078 0-20.859-8.0625-40.312-22.781-55.078l-173.29-173.29c32.625-74.297 52.547-150 45.141-217.92-6.6094-60.469-34.078-110.16-81.844-147.61-7.6875-6-18.844-4.7812-24.938 2.7656l-136.08 165.14-148.78-148.78c-30.375-30.375-79.781-30.375-110.06 0l-390.52 390.1c-30.375 30.375-30.375 79.781 0 110.06zm25.453-84.703 390.37-390.37c16.312-16.312 42.844-16.312 59.156 0l151.31 151.31-364.55 442.22-41.766 50.625-194.53-194.63c-16.312-16.312-16.312-42.844 0-59.156zm555.14 268.92-85.219 103.31-41.625-34.312 74.391-90.234c215.16-261 291.37-458.06 226.78-586.22l46.688-56.531c32.062 29.766 50.062 66.609 54.938 111.7 13.781 127.55-79.078 313.31-275.86 552.24zm414.32-80.156-137.76 137.76c-3.6094 3.6094-5.5312 8.625-5.2969 13.781 0.375 5.1562 2.8594 9.9375 6.9375 13.078l163.69 127.22c20.297 15.844 32.859 39.609 34.547 65.297s-7.9219 50.859-26.156 69.141c-18.234 18.234-43.453 27.703-69.141 26.156s-49.547-14.156-65.297-34.547l-127.22-163.69c-3.1406-4.0781-7.9219-6.6094-13.078-6.9375h-1.0781c-4.7812 0-9.375 1.9219-12.703 5.2969l-137.76 137.76c-16.312 16.312-42.844 16.312-59.156 0l-207.47-207.47 35.062-53.531 113.3 93.375c3.2344 2.625 7.3125 4.0781 11.391 4.0781h1.6875c4.7812-0.46875 9.1406-2.7656 12.141-6.4688l96.703-117.23c47.062-57.141 153.84-186.61 222.61-326.29l164.06 164.06c16.312 16.312 16.312 42.844 0 59.156zm-859.64 391.92c-17.062 2.625-34.688-2.3906-48.375-13.547-12.609-10.312-20.531-24.844-22.219-40.688-1.7812-15.703 2.7656-30.938 12.609-42.844l200.76-243.61 16.547 13.547 50.391 41.531-170.53 260.63c-8.8594 13.688-22.922 22.547-39.234 25.078zm365.02-355.82-74.391 90.234-45.469-37.547-79.312-65.391 428.26-519.61c44.531 114.94-32.391 293.76-229.08 532.31z"/>
 <path d="m1030.8 1092.8c15.938 0 31.781-6 43.922-18.141 24.234-24.234 24.234-63.703 0-87.938s-63.703-24.234-87.938 0-24.234 63.703 0 87.938c12.141 12.141 28.078 18.141 43.922 18.141zm-18.562-80.625c5.1562-5.0625 11.766-7.6875 18.469-7.6875s13.453 2.5312 18.469 7.6875c10.219 10.219 10.219 26.766 0 36.938-10.219 10.219-26.766 10.219-36.938 0-10.219-10.219-10.219-26.766 0-36.938z"/>
</svg>
