<?xml version="1.0" encoding="UTF-8"?>
<svg width="1200pt" height="1200pt" version="1.1" viewBox="0 0 1200 1200" xmlns="http://www.w3.org/2000/svg">
 <path d="m165.71 220.64h868.6l-92.109-97.031h-684.37zm184.03 560.26h500.53v63.516h-500.53zm-109.73-421.55c-56.625 56.672 25.781 132.1 76.781 81.188 35.062-34.969 10.219-95.391-39.516-95.391-13.828 0-27 5.0625-37.266 14.203zm645.47 0c-56.578 56.672 25.781 132.1 76.781 81.188 35.062-34.969 10.219-95.391-39.516-95.391-13.828 0-27 5.0625-37.266 14.203zm-215.16 0c-56.578 56.672 25.781 132.1 76.781 81.188 35.062-34.969 10.219-95.391-39.516-95.391-13.828 0-27 5.0625-37.266 14.203zm-215.16 0c-56.578 56.672 25.781 132.1 76.781 81.188 35.062-34.969 10.219-95.391-39.516-95.391-13.828 0-27 5.0625-37.266 14.203zm-158.76 588.74h607.22c28.594 0 52.078-23.531 52.078-52.078v-262.5c0-28.594-23.484-52.078-52.078-52.078h-607.22c-28.594 0-52.078 23.531-52.078 52.078v262.45c0 28.594 23.484 52.125 52.078 52.125zm607.22 63.516c63.656 0 115.59-51.938 115.59-115.59v-262.5c0-63.656-51.938-115.59-115.59-115.59h-607.22c-63.656 0-115.59 51.938-115.59 115.59v262.45c0 63.656 51.938 115.59 115.59 115.59zm225.94-782.68c6.6094 6.0469 10.359 14.531 10.359 23.438v855.74c0 17.531-14.203 31.734-31.781 31.734l-1016.3 0.046876c-17.531 0-31.734-14.203-31.734-31.734l-0.046875-855.79c0-9.2812 3.9844-17.625 10.312-23.438l149.39-157.26c5.8125-7.0781 14.625-11.578 24.516-11.578h711.37v0.09375c8.3906 0 16.734 3.2812 22.969 9.8438zm-53.156 55.219h-952.78v792.24h952.78z" fill-rule="evenodd"/>
</svg>
