<?xml version="1.0" encoding="UTF-8"?>
<svg width="1200pt" height="1200pt" version="1.1" viewBox="0 0 1200 1200" xmlns="http://www.w3.org/2000/svg">
 <path d="m1135.4 407.72-4.2656-8.5312c-7.7344-15.562-23.344-25.219-40.781-25.219-6.4688 0-12.797 1.3594-18.75 4.0781l-255.24 116.53-0.42188 0.14062c-23.625 6.5625-40.078 28.266-40.031 52.781 0 6.1875 1.0312 12.234 3.0938 18l1.4531 4.0781-11.25 7.5469-2.8594-1.4531c-18.75-9.375-46.266-14.156-81.703-14.156-76.453 0-183.84 22.125-294.71 60.656-8.6719 3-17.578 6.2344-26.531 9.5156l-5.6719 2.1094-1.5938-5.8594c-12.75-47.109 7.4531-84.844 20.672-103.17 3.3281-4.5938 2.8594-10.828-1.0781-14.766l-0.1875-0.14062c-2.1562-2.1094-4.9688-3.2812-7.9688-3.2812-3.7031 0-7.0781 1.7344-9.2812 4.7344-10.031 13.875-17.766 29.203-22.922 45.562-8.3438 26.25-8.5781 54.047-0.65625 80.391l1.4531 4.875-4.6875 1.875c-27.094 10.828-53.297 22.312-77.906 34.219l-6.0469 2.9062-1.7344-6.4688c-14.25-52.828-15.094-107.2-13.266-143.53 0.65625-13.922-4.125-27.281-13.5-37.594s-22.219-16.359-36.141-17.016c-0.84375-0.046875-1.6875-0.046875-2.5781-0.046875-27.844 0-50.719 21.844-52.078 49.594l-0.046875 0.89062c0 0.51562-0.046875 1.0312-0.046875 1.5469v120.56c0 8.1094-6.6094 14.766-14.766 14.766-20.812 0-37.781 16.922-37.781 37.734v0.14062c0.75 27.188 5.5781 53.953 14.297 79.594l1.0781 3.1406-2.25 2.4375c-24.562 26.297-33.469 49.781-26.531 69.75 28.078 80.719 92.719 143.21 181.92 175.87 43.641 15.75 89.297 23.766 135.71 23.766h1.6406c51.328-0.1875 101.91-8.8594 150.42-25.875 97.125-33.797 177.71-96.609 226.97-176.86 49.734-81 61.641-170.11 33.562-250.78-0.46875-1.3594-1.0781-2.7188-1.6875-4.0312l-9.4219-19.406 17.625 12.469c9.1875 6.4688 19.922 9.8906 31.172 9.8906 4.6875 0 9.3281-0.60937 13.828-1.8281l270.14-131.06c10.969-5.25 19.266-14.531 23.297-26.016 4.0781-11.625 3.375-24-1.9688-35.062zm-875.9 293.11c25.312-12.328 52.641-24.375 81.141-35.766l4.5469-1.8281 2.3438 4.2656c3.4219 6.1875 7.1719 12.234 11.203 18.047 2.1094 3 5.5781 4.7812 9.2344 4.7812 2.6719 0 5.2031-0.89063 7.2656-2.625l0.28125-0.23438c4.4531-3.75 5.3906-10.359 2.1094-15.047-2.625-3.7969-5.2031-7.7812-7.5469-11.766l-3.375-5.7188 6.2344-2.2969c8.8125-3.2344 16.828-6.0938 24.609-8.8125 93.656-32.578 185.06-53.25 257.34-58.219 10.688-0.75 20.953-1.125 30.562-1.125 20.906 0 38.578 1.7344 52.547 5.1094 18.328 4.4531 29.625 11.531 32.766 20.531 3.1406 8.9531-1.3594 21.562-12.984 36.469-6.0938 7.6406-12.844 14.766-20.062 21.281l-10.781 9.75 1.5469-14.438c1.3125-12.141-2.2031-24.047-9.8438-33.562-7.6406-9.5156-18.562-15.469-30.703-16.734-1.6406-0.1875-3.2812-0.28125-4.9219-0.28125-22.734 0-42.188 17.016-45.234 39.609-8.8594 65.344-47.156 103.45-58.688 113.58l-0.60938 0.51562-0.75 0.32813c-39.141 18.141-79.688 34.453-120.56 48.609-17.344 6.0469-34.828 11.719-52.031 16.922l-1.3125 0.375-1.3594-0.28125c-69.328-13.359-118.36-55.266-145.74-124.55l-1.875-4.6406zm439.55-2.25-5.3438 3.6562c-14.109 9.6094-29.766 19.312-46.641 28.875l-15.938 9.0938 8.25-16.359c10.875-21.562 18-44.578 21.188-68.484 1.5469-11.203 11.25-19.688 22.547-19.688 12.422 0 22.594 10.125 22.594 22.594 0 0.89062-0.046875 1.8281-0.1875 2.625-2.3906 20.109-5.8125 30.516-8.3906 35.766zm-596.06-7.4531c2.8125-2.8125 6.5156-4.3594 10.453-4.3594 20.812 0 37.734-16.969 37.781-37.781v-120.56c0.046875-16.078 13.125-29.156 29.203-29.203 16.078 0.046876 29.203 13.125 29.203 29.203 0 0.42187-0.046875 0.89062-0.046875 1.4531-2.3906 48.984 0.09375 121.03 25.641 185.95 14.625 37.172 35.25 67.641 61.266 90.656 14.812 13.078 31.453 23.859 49.406 31.969l14.297 6.4688-15.188 3.9375c-39.047 10.125-79.219 17.578-119.39 22.219l-0.84375 0.09375-14.953-2.7656c-39.984-6.6562-70.312-31.781-90.094-74.719-13.031-29.156-20.062-60.094-21.047-92.156 0-3.7969 1.5469-7.6406 4.3125-10.406zm-18.938 157.92-0.32812-0.89063v-0.09375c-2.4375-8.5781 1.5469-19.781 11.719-33.422l5.25-7.0312 4.0781 7.7812c9.75 18.516 22.875 34.734 39.094 48.141l13.828 11.438-17.906-1.6875c-7.6875-0.70312-15.422-1.9688-23.062-3.75-18.234-4.4531-29.531-11.531-32.672-20.484zm697.82-195.24 1.2656 13.312c13.312 141.05-95.531 284.63-258.71 341.39-47.016 16.359-95.062 24.656-142.82 24.656-45.422 0-88.969-7.5469-129.47-22.359-61.547-22.547-110.81-60.375-142.55-109.45l-7.0781-10.969 12.797 2.5312c16.266 3.1875 32.953 4.7812 49.641 4.7812 1.125 0 2.25 0 3.4219-0.046875 10.359 0 21.469-0.42188 33.094-1.2188 58.031-3.9844 128.11-17.766 202.55-39.844l1.2188-0.375 0.32812 0.046875c5.9531-1.4531 40.969-12.891 59.25-19.266 42.609-14.719 84.984-31.875 125.95-51.047l0.84375-0.375c44.906-21.141 84.141-43.172 116.53-65.344 28.781-19.734 50.766-38.625 65.203-56.109zm67.312-81.797-0.42188 0.32812-10.359 5.0625-0.5625 0.14062c-2.4844 0.65625-5.0625 0.98438-7.5938 0.98438-1.2656 0-2.5781-0.09375-3.7969-0.23438l-14.625-1.9219 16.312-10.875c2.5781-1.6875 4.3594-4.2656 4.9688-7.2656 0.65625-3 0.046875-6.0938-1.6406-8.6719-2.1094-3.2812-5.7188-5.2031-9.6562-5.2031-2.2031 0-4.3125 0.60938-6.1875 1.8281-0.046875 0.046875-16.734 11.156-16.734 11.156l0.28125-10.641c0.42188-16.734 14.344-30.328 31.125-30.375 17.156 0 31.078 13.922 31.078 31.031-0.09375 9.5625-4.5938 18.797-12.188 24.656zm255.37-124.31-0.1875 0.14062-219.94 107.16-0.1875-8.6719c-0.32813-15.469-7.2656-30.047-19.031-40.078l-6.6562-5.625 222.61-101.62c2.9531-1.3125 6.0469-1.9688 9.2344-1.9688 8.625 0 16.359 4.7812 20.203 12.469l4.0312 8.0156c5.5312 11.062 0.98438 24.609-10.078 30.188zm-896.63-93.328c25.125 0 45.609-20.438 45.609-45.609 0-25.125-20.484-45.562-45.609-45.609-25.125 0-45.609 20.438-45.609 45.609 0 25.125 20.438 45.609 45.609 45.609zm0-68.203c12.469 0 22.594 10.125 22.594 22.594s-10.125 22.594-22.594 22.594-22.594-10.125-22.594-22.594 10.125-22.594 22.594-22.594zm119.3-51.141c25.125-0.046874 45.609-20.484 45.609-45.609s-20.438-45.609-45.609-45.609c-25.125 0-45.609 20.438-45.609 45.609 0.046875 25.125 20.484 45.609 45.609 45.609zm0-68.203c12.469 0 22.594 10.125 22.594 22.594s-10.125 22.594-22.594 22.594c-12.422 0-22.547-10.125-22.594-22.594 0.046875-12.469 10.172-22.594 22.594-22.594zm-34.078 215.68c6.3281 0 11.531 5.1562 11.531 11.531 0 6.3281-5.1562 11.531-11.531 11.531v-0.046875c-6.3281 0-11.484-5.1562-11.484-11.531 0-6.3281 5.1562-11.484 11.484-11.484zm-199.03-5.5312c0-6.3281 5.1562-11.531 11.484-11.531s11.531 5.1562 11.531 11.531c0 6.3281-5.1562 11.531-11.531 11.531l0.046875-0.046875c-6.375 0-11.531-5.1562-11.531-11.484zm257.72-36.281c6.6094-32.672 28.172-62.672 40.453-77.672 2.1562-2.6719 5.3906-4.1719 8.8125-4.1719 3.0938 0 5.9531 1.2188 8.1562 3.375 4.2188 4.2188 4.5 10.922 0.65625 15.562-4.9219 5.9531-9.5625 12.281-13.828 18.703-11.391 17.203-18.703 33.562-21.703 48.609-1.0781 5.3438-5.8125 9.2344-11.25 9.2344-3.4688 0-6.75-1.5469-8.9531-4.2656-2.1562-2.625-3-6.0469-2.3438-9.375z"/>
</svg>
