<?xml version="1.0" encoding="UTF-8"?>
<svg width="1200pt" height="1200pt" version="1.1" viewBox="0 0 1200 1200" xmlns="http://www.w3.org/2000/svg">
 <path d="m1031.2 337.5h-337.87c-10.363 0-18.75 8.3945-18.75 18.75 0 10.355 8.3867 18.75 18.75 18.75h319.12v750h-637.5v-506.62c0-10.355-8.3867-18.75-18.75-18.75s-18.75 8.3945-18.75 18.75v525.38c0 10.355 8.3867 18.75 18.75 18.75h675c10.363 0 18.75-8.3945 18.75-18.75v-787.5c0-10.352-8.3867-18.75-18.75-18.75z"/>
 <path d="m419.53 562.5c120.19 0 217.97-97.777 217.97-217.97v-100.78c0-10.355-8.3867-18.75-18.75-18.75h-450c-10.363 0-18.75 8.3945-18.75 18.75v100.78c0 120.19 97.777 217.97 217.97 217.97zm180.47-300v56.25h-412.5v-56.25zm-411.91 93.75h411.31c-6.0859 94.043-84.312 168.75-179.88 168.75h-51.562c-95.562 0-173.79-74.707-179.88-168.75z"/>
 <path d="m393.75 142.8c0 0.035157-0.89844 3.7617-10.676 10.547-8.5156 5.8945-10.637 17.578-4.7422 26.082 3.6445 5.2539 9.4844 8.0742 15.438 8.0742 3.6797 0 7.3984-1.082 10.656-3.3398 16.535-11.453 25.25-23.766 26.641-37.637 2.0156-20.188-12.305-35.066-23.805-47.023-4.3945-4.5586-13.512-14.043-13.512-17.293 0-0.035157 0.89844-3.7617 10.676-10.547 8.5156-5.8945 10.637-17.578 4.7422-26.082-5.8945-8.5156-17.578-10.656-26.094-4.7344-16.535 11.453-25.25 23.766-26.641 37.637-2.0156 20.188 12.305 35.066 23.805 47.023 4.3945 4.5586 13.512 14.043 13.512 17.293z"/>
 <path d="m262.5 142.8c0 0.035157-0.89844 3.7617-10.676 10.547-8.5156 5.8945-10.637 17.578-4.7422 26.082 3.6445 5.2539 9.4844 8.0742 15.438 8.0742 3.6797 0 7.3984-1.082 10.656-3.3398 16.535-11.453 25.25-23.766 26.641-37.637 2.0156-20.188-12.305-35.066-23.805-47.023-4.3945-4.5586-13.512-14.043-13.512-17.293 0-0.035157 0.89844-3.7617 10.676-10.547 8.5156-5.8945 10.637-17.578 4.7422-26.082-5.9141-8.5156-17.578-10.656-26.094-4.7344-16.535 11.453-25.25 23.766-26.641 37.637-2.0156 20.188 12.305 35.066 23.805 47.023 4.3945 4.5586 13.512 14.043 13.512 17.293z"/>
 <path d="m525 142.8c0 0.035157-0.89844 3.7617-10.676 10.547-8.5156 5.8945-10.637 17.578-4.7422 26.082 3.6445 5.2539 9.4844 8.0742 15.438 8.0742 3.6797 0 7.3984-1.082 10.656-3.3398 16.535-11.453 25.25-23.766 26.641-37.637 2.0156-20.188-12.305-35.066-23.805-47.023-4.3945-4.5586-13.512-14.043-13.512-17.293 0-0.035157 0.89844-3.7617 10.676-10.547 8.5156-5.8945 10.637-17.578 4.7422-26.082-5.8945-8.5156-17.559-10.656-26.094-4.7344-16.535 11.453-25.25 23.766-26.641 37.637-2.0156 20.188 12.305 35.066 23.805 47.023 4.3945 4.5586 13.512 14.043 13.512 17.293z"/>
 <path d="m731.52 1011.9c-0.007813 0.33984 0.023437 0.65625 0.03125 0.99609 0.52344 11.035 1.5195 18.207 1.6797 19.285 1.1914 8.2109 7.6367 14.656 15.855 15.855 1.4648 0.21094 14.281 1.9883 32.793 1.9883 35.797 0 92.891-6.6484 130.32-44.082 56.801-56.801 42.719-158.81 42.078-163.13-1.1914-8.2109-7.6367-14.656-15.855-15.855-4.2852-0.62109-106.33-14.703-163.11 42.098-42.219 42.219-45.266 109.36-43.789 142.84zm70.305-116.33c32.609-32.629 89.703-34.031 116.58-32.73 1.3359 26.816-0.10938 83.98-32.723 116.59-29.902 29.91-80.156 33.5-109.02 32.926l61.602-61.602c7.3242-7.3242 7.3242-19.188 0-26.516-7.3242-7.3242-19.188-7.3242-26.516 0l-40.324 40.324c3.6328-24.246 11.93-50.523 30.402-68.996z"/>
 <path d="m704.73 875.61c9.5234 4.082 20.543-0.3125 24.629-9.8438 4.082-9.5117-0.32812-20.535-9.832-24.617-54.473-23.391-117.86-14.656-120.5-14.266-8.2383 1.1797-14.723 7.6445-15.91 15.883-0.60547 4.3125-14.559 106.32 42.242 163.13 11.773 11.766 26.238 21.258 43.012 28.234 2.3438 0.98047 4.7773 1.4453 7.1953 1.4453 7.3438-0.007812 14.32-4.3477 17.305-11.555 3.9922-9.5664-0.55078-20.535-10.109-24.52-12.215-5.082-22.594-11.855-30.891-20.133-32.609-32.609-34.148-89.73-32.848-116.57 19.48-0.95312 55.113-0.3125 85.707 12.816z"/>
 <path d="m787.5 487.5h112.5c10.363 0 18.75-8.3945 18.75-18.75 0-10.355-8.3867-18.75-18.75-18.75h-112.5c-10.363 0-18.75 8.3945-18.75 18.75 0 10.355 8.3867 18.75 18.75 18.75z"/>
 <path d="m787.5 581.25h112.5c10.363 0 18.75-8.3945 18.75-18.75 0-10.355-8.3867-18.75-18.75-18.75h-112.5c-10.363 0-18.75 8.3945-18.75 18.75 0 10.355 8.3867 18.75 18.75 18.75z"/>
 <path d="m543.75 637.5h-75c-10.363 0-18.75 8.3945-18.75 18.75 0 10.355 8.3867 18.75 18.75 18.75h75c10.363 0 18.75-8.3945 18.75-18.75 0-10.352-8.3867-18.75-18.75-18.75z"/>
 <path d="m543.75 731.25h-75c-10.363 0-18.75 8.3945-18.75 18.75 0 10.355 8.3867 18.75 18.75 18.75h75c10.363 0 18.75-8.3945 18.75-18.75 0-10.352-8.3867-18.75-18.75-18.75z"/>
 <path d="m543.75 825h-75c-10.363 0-18.75 8.3945-18.75 18.75 0 10.355 8.3867 18.75 18.75 18.75h75c10.363 0 18.75-8.3945 18.75-18.75 0-10.352-8.3867-18.75-18.75-18.75z"/>
</svg>
